<mxfile host="app.diagrams.net" agent="Mozilla/5.0 (Macintosh; Intel Mac OS X 10_15_7) AppleWebKit/537.36 (KHTML, like Gecko) Chrome/134.0.0.0 Safari/537.36" version="27.1.5">
  <diagram name="Page-1" id="VPvSWpePddd85YUiMCvv">
    <mxGraphModel dx="953" dy="1662" grid="1" gridSize="10" guides="1" tooltips="1" connect="1" arrows="1" fold="1" page="1" pageScale="1" pageWidth="850" pageHeight="1100" math="0" shadow="0">
      <root>
        <mxCell id="0" />
        <mxCell id="1" parent="0" />
        <mxCell id="R2_j38FYux8X8zZq09Qh-1" value="" style="rounded=0;whiteSpace=wrap;html=1;dashed=1;fillColor=none;" vertex="1" parent="1">
          <mxGeometry x="50" y="120" width="120" height="360" as="geometry" />
        </mxCell>
        <mxCell id="R2_j38FYux8X8zZq09Qh-2" value="Sources" style="rounded=0;whiteSpace=wrap;html=1;strokeColor=none;fontSize=16;fontStyle=1" vertex="1" parent="1">
          <mxGeometry x="75" y="100" width="70" height="40" as="geometry" />
        </mxCell>
        <mxCell id="R2_j38FYux8X8zZq09Qh-4" value="CRM" style="image;aspect=fixed;html=1;points=[];align=center;fontSize=12;image=img/lib/azure2/general/Folder_Blank.svg;" vertex="1" parent="1">
          <mxGeometry x="75" y="194" width="69" height="56.00000000000001" as="geometry" />
        </mxCell>
        <mxCell id="R2_j38FYux8X8zZq09Qh-5" value="ERP" style="image;aspect=fixed;html=1;points=[];align=center;fontSize=12;image=img/lib/azure2/general/Folder_Blank.svg;" vertex="1" parent="1">
          <mxGeometry x="75" y="320" width="69" height="56.00000000000001" as="geometry" />
        </mxCell>
        <mxCell id="R2_j38FYux8X8zZq09Qh-6" value="" style="rounded=0;whiteSpace=wrap;html=1;dashed=1;gradientColor=none;fillColor=none;" vertex="1" parent="1">
          <mxGeometry x="230" y="130" width="140" height="350" as="geometry" />
        </mxCell>
        <mxCell id="R2_j38FYux8X8zZq09Qh-7" value="Bronze Layer" style="rounded=0;whiteSpace=wrap;html=1;fillColor=#ffe6cc;strokeColor=#d79b00;fontSize=16;fontStyle=1" vertex="1" parent="1">
          <mxGeometry x="240" y="100" width="120" height="30" as="geometry" />
        </mxCell>
        <mxCell id="R2_j38FYux8X8zZq09Qh-8" value="crm_sales_details" style="rounded=0;whiteSpace=wrap;html=1;fillColor=#ffe6cc;strokeColor=#d79b00;fontSize=14;" vertex="1" parent="1">
          <mxGeometry x="240" y="180" width="120" height="27" as="geometry" />
        </mxCell>
        <mxCell id="R2_j38FYux8X8zZq09Qh-9" value="crm_cust_info" style="rounded=0;whiteSpace=wrap;html=1;fillColor=#ffe6cc;strokeColor=#d79b00;fontSize=14;" vertex="1" parent="1">
          <mxGeometry x="240" y="220" width="120" height="26" as="geometry" />
        </mxCell>
        <mxCell id="R2_j38FYux8X8zZq09Qh-10" value="crm_prd_info" style="rounded=0;whiteSpace=wrap;html=1;fillColor=#ffe6cc;strokeColor=#d79b00;fontSize=14;" vertex="1" parent="1">
          <mxGeometry x="240" y="260" width="120" height="30" as="geometry" />
        </mxCell>
        <mxCell id="R2_j38FYux8X8zZq09Qh-11" value="erp_cust_az12" style="rounded=0;whiteSpace=wrap;html=1;fillColor=#ffe6cc;strokeColor=#d79b00;fontSize=14;" vertex="1" parent="1">
          <mxGeometry x="238" y="314.5" width="120" height="27" as="geometry" />
        </mxCell>
        <mxCell id="R2_j38FYux8X8zZq09Qh-12" value="erp_loc_a101" style="rounded=0;whiteSpace=wrap;html=1;fillColor=#ffe6cc;strokeColor=#d79b00;fontSize=14;" vertex="1" parent="1">
          <mxGeometry x="240" y="356" width="120" height="26" as="geometry" />
        </mxCell>
        <mxCell id="R2_j38FYux8X8zZq09Qh-13" value="erp_px_cat_g1v2" style="rounded=0;whiteSpace=wrap;html=1;fillColor=#ffe6cc;strokeColor=#d79b00;fontSize=14;" vertex="1" parent="1">
          <mxGeometry x="240" y="400" width="120" height="30" as="geometry" />
        </mxCell>
        <mxCell id="R2_j38FYux8X8zZq09Qh-20" value="" style="strokeWidth=2;html=1;shape=mxgraph.flowchart.annotation_2;align=left;labelPosition=right;pointerEvents=1;" vertex="1" parent="1">
          <mxGeometry x="145" y="194" width="80" height="80" as="geometry" />
        </mxCell>
        <mxCell id="R2_j38FYux8X8zZq09Qh-22" value="" style="endArrow=classic;html=1;rounded=0;exitX=0.488;exitY=0.475;exitDx=0;exitDy=0;exitPerimeter=0;entryX=-0.029;entryY=0.294;entryDx=0;entryDy=0;entryPerimeter=0;" edge="1" parent="1" source="R2_j38FYux8X8zZq09Qh-20" target="R2_j38FYux8X8zZq09Qh-6">
          <mxGeometry width="50" height="50" relative="1" as="geometry">
            <mxPoint x="180" y="236" as="sourcePoint" />
            <mxPoint x="230" y="225" as="targetPoint" />
          </mxGeometry>
        </mxCell>
        <mxCell id="R2_j38FYux8X8zZq09Qh-23" value="" style="strokeWidth=2;html=1;shape=mxgraph.flowchart.annotation_2;align=left;labelPosition=right;pointerEvents=1;" vertex="1" parent="1">
          <mxGeometry x="145" y="329" width="80" height="80" as="geometry" />
        </mxCell>
        <mxCell id="R2_j38FYux8X8zZq09Qh-24" value="" style="endArrow=block;html=1;rounded=0;endFill=1;" edge="1" parent="1">
          <mxGeometry width="50" height="50" relative="1" as="geometry">
            <mxPoint x="180" y="370" as="sourcePoint" />
            <mxPoint x="230" y="370" as="targetPoint" />
            <Array as="points" />
          </mxGeometry>
        </mxCell>
        <mxCell id="R2_j38FYux8X8zZq09Qh-25" value="Data Flow Diagram&amp;nbsp;" style="text;html=1;align=center;verticalAlign=middle;whiteSpace=wrap;rounded=0;fontSize=30;fontStyle=1;fillColor=#dae8fc;strokeColor=#6c8ebf;" vertex="1" parent="1">
          <mxGeometry x="240" y="-20" width="390" height="30" as="geometry" />
        </mxCell>
        <mxCell id="R2_j38FYux8X8zZq09Qh-26" value="" style="rounded=0;whiteSpace=wrap;html=1;dashed=1;gradientColor=none;fillColor=none;" vertex="1" parent="1">
          <mxGeometry x="430" y="130" width="140" height="350" as="geometry" />
        </mxCell>
        <mxCell id="R2_j38FYux8X8zZq09Qh-27" value="Silver Layer" style="rounded=0;whiteSpace=wrap;html=1;fillColor=#f5f5f5;strokeColor=#666666;fontColor=#333333;fontSize=16;fontStyle=1" vertex="1" parent="1">
          <mxGeometry x="440" y="100" width="120" height="30" as="geometry" />
        </mxCell>
        <mxCell id="R2_j38FYux8X8zZq09Qh-28" value="crm_sales_details" style="rounded=0;whiteSpace=wrap;html=1;fillColor=#f5f5f5;strokeColor=#666666;fontColor=#333333;fontSize=14;" vertex="1" parent="1">
          <mxGeometry x="440" y="180" width="120" height="27" as="geometry" />
        </mxCell>
        <mxCell id="R2_j38FYux8X8zZq09Qh-29" value="crm_cust_info" style="rounded=0;whiteSpace=wrap;html=1;fillColor=#f5f5f5;strokeColor=#666666;fontColor=#333333;fontSize=14;" vertex="1" parent="1">
          <mxGeometry x="440" y="220" width="120" height="26" as="geometry" />
        </mxCell>
        <mxCell id="R2_j38FYux8X8zZq09Qh-30" value="crm_prd_info" style="rounded=0;whiteSpace=wrap;html=1;fillColor=#f5f5f5;strokeColor=#666666;fontColor=#333333;fontSize=14;" vertex="1" parent="1">
          <mxGeometry x="440" y="260" width="120" height="30" as="geometry" />
        </mxCell>
        <mxCell id="R2_j38FYux8X8zZq09Qh-31" value="erp_cust_az12" style="rounded=0;whiteSpace=wrap;html=1;fillColor=#f5f5f5;strokeColor=#666666;fontColor=#333333;fontSize=14;" vertex="1" parent="1">
          <mxGeometry x="438" y="314.5" width="120" height="27" as="geometry" />
        </mxCell>
        <mxCell id="R2_j38FYux8X8zZq09Qh-32" value="erp_loc_a101" style="rounded=0;whiteSpace=wrap;html=1;fillColor=#f5f5f5;strokeColor=#666666;fontColor=#333333;fontSize=14;" vertex="1" parent="1">
          <mxGeometry x="440" y="356" width="120" height="26" as="geometry" />
        </mxCell>
        <mxCell id="R2_j38FYux8X8zZq09Qh-33" value="erp_px_cat_g1v2" style="rounded=0;whiteSpace=wrap;html=1;fillColor=#f5f5f5;strokeColor=#666666;fontColor=#333333;fontSize=14;" vertex="1" parent="1">
          <mxGeometry x="440" y="400" width="120" height="30" as="geometry" />
        </mxCell>
        <mxCell id="R2_j38FYux8X8zZq09Qh-34" style="edgeStyle=none;rounded=0;orthogonalLoop=1;jettySize=auto;html=1;exitX=1;exitY=0.5;exitDx=0;exitDy=0;entryX=0.029;entryY=0.183;entryDx=0;entryDy=0;entryPerimeter=0;fontSize=14;" edge="1" parent="1" source="R2_j38FYux8X8zZq09Qh-8" target="R2_j38FYux8X8zZq09Qh-26">
          <mxGeometry relative="1" as="geometry" />
        </mxCell>
        <mxCell id="R2_j38FYux8X8zZq09Qh-36" style="edgeStyle=none;rounded=0;orthogonalLoop=1;jettySize=auto;html=1;exitX=1;exitY=0.5;exitDx=0;exitDy=0;entryX=0.029;entryY=0.183;entryDx=0;entryDy=0;entryPerimeter=0;" edge="1" parent="1">
          <mxGeometry relative="1" as="geometry">
            <mxPoint x="360" y="270" as="sourcePoint" />
            <mxPoint x="434" y="270" as="targetPoint" />
          </mxGeometry>
        </mxCell>
        <mxCell id="R2_j38FYux8X8zZq09Qh-37" style="edgeStyle=none;rounded=0;orthogonalLoop=1;jettySize=auto;html=1;exitX=1;exitY=0.5;exitDx=0;exitDy=0;entryX=0.029;entryY=0.183;entryDx=0;entryDy=0;entryPerimeter=0;" edge="1" parent="1">
          <mxGeometry relative="1" as="geometry">
            <mxPoint x="360" y="330" as="sourcePoint" />
            <mxPoint x="434" y="330" as="targetPoint" />
          </mxGeometry>
        </mxCell>
        <mxCell id="R2_j38FYux8X8zZq09Qh-38" style="edgeStyle=none;rounded=0;orthogonalLoop=1;jettySize=auto;html=1;exitX=1;exitY=0.5;exitDx=0;exitDy=0;entryX=0.029;entryY=0.183;entryDx=0;entryDy=0;entryPerimeter=0;" edge="1" parent="1">
          <mxGeometry relative="1" as="geometry">
            <mxPoint x="360" y="370" as="sourcePoint" />
            <mxPoint x="434" y="370" as="targetPoint" />
          </mxGeometry>
        </mxCell>
        <mxCell id="R2_j38FYux8X8zZq09Qh-39" style="edgeStyle=none;rounded=0;orthogonalLoop=1;jettySize=auto;html=1;exitX=1;exitY=0.5;exitDx=0;exitDy=0;entryX=0.029;entryY=0.183;entryDx=0;entryDy=0;entryPerimeter=0;" edge="1" parent="1">
          <mxGeometry relative="1" as="geometry">
            <mxPoint x="360" y="410" as="sourcePoint" />
            <mxPoint x="434" y="410" as="targetPoint" />
          </mxGeometry>
        </mxCell>
        <mxCell id="R2_j38FYux8X8zZq09Qh-40" style="edgeStyle=none;rounded=0;orthogonalLoop=1;jettySize=auto;html=1;exitX=1;exitY=0.5;exitDx=0;exitDy=0;entryX=0.029;entryY=0.183;entryDx=0;entryDy=0;entryPerimeter=0;" edge="1" parent="1">
          <mxGeometry relative="1" as="geometry">
            <mxPoint x="360" y="230" as="sourcePoint" />
            <mxPoint x="434" y="230" as="targetPoint" />
          </mxGeometry>
        </mxCell>
        <mxCell id="R2_j38FYux8X8zZq09Qh-41" value="" style="rounded=0;whiteSpace=wrap;html=1;dashed=1;gradientColor=none;fillColor=none;" vertex="1" parent="1">
          <mxGeometry x="660" y="130" width="140" height="350" as="geometry" />
        </mxCell>
        <mxCell id="R2_j38FYux8X8zZq09Qh-42" value="Gold Layer" style="rounded=0;whiteSpace=wrap;html=1;fillColor=#fff2cc;strokeColor=#d6b656;fontSize=16;" vertex="1" parent="1">
          <mxGeometry x="670" y="100" width="120" height="30" as="geometry" />
        </mxCell>
        <mxCell id="R2_j38FYux8X8zZq09Qh-43" value="Fact_sales" style="rounded=0;whiteSpace=wrap;html=1;fillColor=#fff2cc;strokeColor=#d6b656;fontSize=14;" vertex="1" parent="1">
          <mxGeometry x="670" y="194" width="120" height="27" as="geometry" />
        </mxCell>
        <mxCell id="R2_j38FYux8X8zZq09Qh-44" value="dim_customers" style="rounded=0;whiteSpace=wrap;html=1;fillColor=#fff2cc;strokeColor=#d6b656;fontSize=14;" vertex="1" parent="1">
          <mxGeometry x="670" y="263" width="120" height="27" as="geometry" />
        </mxCell>
        <mxCell id="R2_j38FYux8X8zZq09Qh-45" value="dim_products" style="rounded=0;whiteSpace=wrap;html=1;fillColor=#fff2cc;strokeColor=#d6b656;fontSize=14;" vertex="1" parent="1">
          <mxGeometry x="670" y="320" width="120" height="35.5" as="geometry" />
        </mxCell>
        <mxCell id="R2_j38FYux8X8zZq09Qh-47" style="edgeStyle=none;rounded=0;orthogonalLoop=1;jettySize=auto;html=1;exitX=1;exitY=0.5;exitDx=0;exitDy=0;entryX=0.071;entryY=0.229;entryDx=0;entryDy=0;entryPerimeter=0;" edge="1" parent="1" source="R2_j38FYux8X8zZq09Qh-28" target="R2_j38FYux8X8zZq09Qh-41">
          <mxGeometry relative="1" as="geometry" />
        </mxCell>
        <mxCell id="R2_j38FYux8X8zZq09Qh-48" style="edgeStyle=none;rounded=0;orthogonalLoop=1;jettySize=auto;html=1;entryX=-0.007;entryY=0.397;entryDx=0;entryDy=0;entryPerimeter=0;exitX=0.971;exitY=0.294;exitDx=0;exitDy=0;exitPerimeter=0;" edge="1" parent="1" source="R2_j38FYux8X8zZq09Qh-26" target="R2_j38FYux8X8zZq09Qh-41">
          <mxGeometry relative="1" as="geometry">
            <mxPoint x="590" y="240" as="sourcePoint" />
            <mxPoint x="700" y="256" as="targetPoint" />
          </mxGeometry>
        </mxCell>
        <mxCell id="R2_j38FYux8X8zZq09Qh-49" style="edgeStyle=none;rounded=0;orthogonalLoop=1;jettySize=auto;html=1;exitX=1;exitY=0.5;exitDx=0;exitDy=0;entryX=-0.014;entryY=0.609;entryDx=0;entryDy=0;entryPerimeter=0;" edge="1" parent="1" source="R2_j38FYux8X8zZq09Qh-30" target="R2_j38FYux8X8zZq09Qh-41">
          <mxGeometry relative="1" as="geometry" />
        </mxCell>
        <mxCell id="R2_j38FYux8X8zZq09Qh-50" style="edgeStyle=none;rounded=0;orthogonalLoop=1;jettySize=auto;html=1;exitX=1;exitY=0.5;exitDx=0;exitDy=0;entryX=-0.014;entryY=0.431;entryDx=0;entryDy=0;entryPerimeter=0;" edge="1" parent="1" source="R2_j38FYux8X8zZq09Qh-31" target="R2_j38FYux8X8zZq09Qh-41">
          <mxGeometry relative="1" as="geometry" />
        </mxCell>
        <mxCell id="R2_j38FYux8X8zZq09Qh-51" style="edgeStyle=none;rounded=0;orthogonalLoop=1;jettySize=auto;html=1;exitX=1;exitY=0.5;exitDx=0;exitDy=0;entryX=0.014;entryY=0.446;entryDx=0;entryDy=0;entryPerimeter=0;" edge="1" parent="1" source="R2_j38FYux8X8zZq09Qh-32" target="R2_j38FYux8X8zZq09Qh-41">
          <mxGeometry relative="1" as="geometry" />
        </mxCell>
        <mxCell id="R2_j38FYux8X8zZq09Qh-52" style="edgeStyle=none;rounded=0;orthogonalLoop=1;jettySize=auto;html=1;exitX=1;exitY=0.5;exitDx=0;exitDy=0;entryX=0.021;entryY=0.617;entryDx=0;entryDy=0;entryPerimeter=0;" edge="1" parent="1" source="R2_j38FYux8X8zZq09Qh-33" target="R2_j38FYux8X8zZq09Qh-41">
          <mxGeometry relative="1" as="geometry" />
        </mxCell>
      </root>
    </mxGraphModel>
  </diagram>
</mxfile>
